<?xml version="1.0" encoding="UTF-8" standalone="no"?><!-- Generator: Gravit.io --><svg xmlns="http://www.w3.org/2000/svg" xmlns:xlink="http://www.w3.org/1999/xlink" style="isolation:isolate" viewBox="0 0 500 500" width="500pt" height="500pt"><defs><clipPath id="_clipPath_6iSwrJCopcRm1GIXHXyKnPDfau3G2pq9"><rect width="500" height="500"/></clipPath></defs><g clip-path="url(#_clipPath_6iSwrJCopcRm1GIXHXyKnPDfau3G2pq9)"><path d=" M 355.422 174.327 C 362.7 181.605 362.7 193.403 355.422 200.677 L 230.43 325.673 C 223.152 332.947 211.358 332.947 204.08 325.673 L 144.578 266.168 C 137.3 258.894 137.3 247.096 144.578 239.822 C 151.853 232.544 163.65 232.544 170.925 239.822 L 217.253 286.15 L 329.072 174.327 C 336.35 167.053 348.147 167.053 355.422 174.327 L 355.422 174.327 Z  M 488.485 250 C 488.485 381.822 381.804 488.485 250 488.485 C 118.178 488.485 11.515 381.804 11.515 250 C 11.515 118.178 118.196 11.515 250 11.515 C 381.822 11.515 488.485 118.196 488.485 250 Z  M 451.222 250 C 451.222 138.774 361.211 48.778 250 48.778 C 138.774 48.778 48.778 138.789 48.778 250 C 48.778 361.226 138.789 451.222 250 451.222 C 361.226 451.222 451.222 361.211 451.222 250 Z " fill="rgb(0,217,105)" vector-effect="non-scaling-stroke" stroke-width="20" stroke="rgb(0,217,105)" stroke-linejoin="miter" stroke-linecap="butt" stroke-miterlimit="4"/></g></svg>